<svg xmlns="http://www.w3.org/2000/svg" width="1530" height="1078" viewBox="0 0 1530 1078" font-family="-apple-system, 'Segoe UI', Helvetica, Arial, sans-serif" role="img" aria-labelledby="titulo"><title id="titulo">Armario — serverless architecture on AWS</title><defs><marker id="punta" viewBox="0 0 10 10" refX="9" refY="5" markerWidth="7" markerHeight="7" orient="auto-start-reverse"><path d="M0,0 L10,5 L0,10 z" fill="#545B64"/></marker></defs><rect width="1530" height="1078" fill="#fff"/><text x="24" y="40" font-size="23" font-weight="800" fill="#16191F">Armario — serverless architecture on AWS</text><text x="24" y="62" font-size="13.5" fill="#545B64">React PWA · API Gateway · Lambda · DynamoDB · S3 · Amazon Bedrock · defined with AWS CDK</text><rect x="230" y="102" width="1111" height="886" rx="4" fill="none" stroke="#232F3E" stroke-width="1.5"/><rect x="230" y="102" width="104" height="24" fill="#232F3E"/><text x="242" y="118" font-size="12" font-weight="700" fill="#fff">AWS Cloud</text><rect x="252" y="134" width="847" height="840" rx="4" fill="none" stroke="#00A4A6" stroke-width="1.3" stroke-dasharray="7 5"/><text x="264" y="152" font-size="12" font-weight="700" fill="#007E80">Region eu-west-1 (Ireland)</text><rect x="1109" y="134" width="216" height="840" rx="4" fill="none" stroke="#00A4A6" stroke-width="1.3" stroke-dasharray="7 5"/><text x="1121" y="152" font-size="12" font-weight="700" fill="#007E80">Region us-east-1</text><rect x="264" y="178" width="618" height="98" rx="10" fill="#F2F3F3" stroke="#E1E4E8"/><text x="276" y="195" font-size="11.5" font-weight="700" fill="#545B64" letter-spacing=".3">DELIVERY</text><rect x="264" y="348" width="208" height="98" rx="10" fill="#F2F3F3" stroke="#E1E4E8"/><text x="276" y="365" font-size="11.5" font-weight="700" fill="#545B64" letter-spacing=".3">IDENTITY</text><rect x="469" y="348" width="618" height="98" rx="10" fill="#F2F3F3" stroke="#E1E4E8"/><text x="481" y="365" font-size="11.5" font-weight="700" fill="#545B64" letter-spacing=".3">API</text><rect x="469" y="518" width="413" height="98" rx="10" fill="#F2F3F3" stroke="#E1E4E8"/><text x="481" y="535" font-size="11.5" font-weight="700" fill="#545B64" letter-spacing=".3">DATA</text><rect x="879" y="518" width="208" height="268" rx="10" fill="#F2F3F3" stroke="#E1E4E8"/><text x="891" y="535" font-size="11.5" font-weight="700" fill="#545B64" letter-spacing=".3">AMAZON BEDROCK</text><rect x="469" y="688" width="413" height="98" rx="10" fill="#F2F3F3" stroke="#E1E4E8"/><text x="481" y="705" font-size="11.5" font-weight="700" fill="#545B64" letter-spacing=".3">PIPELINE</text><rect x="264" y="858" width="618" height="98" rx="10" fill="#F2F3F3" stroke="#E1E4E8"/><text x="276" y="875" font-size="11.5" font-weight="700" fill="#545B64" letter-spacing=".3">MONITORING</text><rect x="1113" y="688" width="208" height="98" rx="10" fill="#F2F3F3" stroke="#E1E4E8"/><text x="1125" y="705" font-size="11.5" font-weight="700" fill="#545B64" letter-spacing=".3">AMAZON BEDROCK</text><path d="M67,376 L67,234 L278,234" fill="none" stroke="#545B64" stroke-width="1.7" marker-end="url(#punta)"/><text x="157" y="226" font-size="11.5" fill="#16191F" text-anchor="middle" paint-order="stroke" stroke="#fff" stroke-width="4" stroke-linejoin="round">load app</text><circle cx="67" cy="305" r="10" fill="#16191F"/><text x="67" y="309" font-size="11.5" font-weight="700" fill="#fff" text-anchor="middle">1</text><path d="M172,404 L278,404" fill="none" stroke="#545B64" stroke-width="1.7" marker-end="url(#punta)"/><circle cx="201" cy="404" r="10" fill="#16191F"/><text x="201" y="408" font-size="11.5" font-weight="700" fill="#fff" text-anchor="middle">2</text><path d="M127,376 L127,312 L573,312 L573,376" fill="none" stroke="#545B64" stroke-width="1.7" marker-end="url(#punta)"/><text x="368" y="304" font-size="11.5" fill="#16191F" text-anchor="middle" paint-order="stroke" stroke="#fff" stroke-width="4" stroke-linejoin="round">HTTPS + JWT</text><circle cx="127" cy="344" r="10" fill="#16191F"/><text x="127" y="348" font-size="11.5" font-weight="700" fill="#fff" text-anchor="middle">3</text><path d="M97,432 L97,574 L483,574" fill="none" stroke="#545B64" stroke-width="1.7" marker-end="url(#punta)"/><text x="282" y="565" font-size="11.5" fill="#16191F" text-anchor="start" paint-order="stroke" stroke="#fff" stroke-width="4" stroke-linejoin="round">upload photo (presigned URL)</text><circle cx="97" cy="503" r="10" fill="#16191F"/><text x="97" y="507" font-size="11.5" font-weight="700" fill="#fff" text-anchor="middle">4</text><path d="M458,234 L483,234" fill="none" stroke="#545B64" stroke-width="1.7" marker-end="url(#punta)"/><path d="M663,234 L688,234" fill="none" stroke="#545B64" stroke-width="1.7" marker-end="url(#punta)"/><path d="M1217,206 L1217,165 L603,165 L603,206" fill="none" stroke="#545B64" stroke-width="1.7" marker-end="url(#punta)"/><text x="900" y="158" font-size="11.5" fill="#16191F" text-anchor="middle" paint-order="stroke" stroke="#fff" stroke-width="4" stroke-linejoin="round">TLS certificate</text><path d="M663,404 L688,404" fill="none" stroke="#545B64" stroke-width="1.7" marker-end="url(#punta)"/><path d="M628,376 L628,336 L983,336 L983,376" fill="none" stroke="#545B64" stroke-width="1.7" marker-end="url(#punta)"/><path d="M748,432 L748,546" fill="none" stroke="#545B64" stroke-width="1.7" marker-end="url(#punta)"/><text x="742" y="493" font-size="11.5" fill="#16191F" text-anchor="end" paint-order="stroke" stroke="#fff" stroke-width="4" stroke-linejoin="round">read / write</text><path d="M943,432 L943,482 L808,482 L808,546" fill="none" stroke="#545B64" stroke-width="1.7" marker-end="url(#punta)"/><path d="M1023,432 L1023,546" fill="none" stroke="#545B64" stroke-width="1.7" marker-end="url(#punta)"/><text x="1029" y="493" font-size="11.5" fill="#16191F" text-anchor="start" paint-order="stroke" stroke="#fff" stroke-width="4" stroke-linejoin="round">outfits</text><path d="M1073,404 L1359,404" fill="none" stroke="#545B64" stroke-width="1.7" marker-end="url(#punta)"/><text x="1236" y="395" font-size="11.5" fill="#16191F" text-anchor="middle" paint-order="stroke" stroke="#fff" stroke-width="4" stroke-linejoin="round">today's weather</text><circle cx="1086" cy="404" r="10" fill="#16191F"/><text x="1086" y="408" font-size="11.5" font-weight="700" fill="#fff" text-anchor="middle">6</text><path d="M583,602 L583,716" fill="none" stroke="#545B64" stroke-width="1.7" stroke-dasharray="6 5" marker-end="url(#punta)"/><text x="577" y="653" font-size="11.5" fill="#16191F" text-anchor="end" paint-order="stroke" stroke="#fff" stroke-width="4" stroke-linejoin="round">object created</text><circle cx="583" cy="675" r="10" fill="#16191F"/><text x="583" y="679" font-size="11.5" font-weight="700" fill="#fff" text-anchor="middle">5</text><path d="M663,744 L688,744" fill="none" stroke="#545B64" stroke-width="1.7" stroke-dasharray="6 5" marker-end="url(#punta)"/><path d="M738,716 L738,652 L635,652 L635,602" fill="none" stroke="#545B64" stroke-width="1.7" marker-end="url(#punta)"/><text x="695" y="645" font-size="11.5" fill="#16191F" text-anchor="middle" paint-order="stroke" stroke="#fff" stroke-width="4" stroke-linejoin="round">cut-out + thumbnail</text><path d="M818,716 L818,602" fill="none" stroke="#545B64" stroke-width="1.7" marker-end="url(#punta)"/><text x="824" y="679" font-size="11.5" fill="#16191F" text-anchor="start" paint-order="stroke" stroke="#fff" stroke-width="4" stroke-linejoin="round">result</text><path d="M868,744 L893,744" fill="none" stroke="#545B64" stroke-width="1.7" marker-end="url(#punta)"/><path d="M828,772 L828,822 L1217,822 L1217,772" fill="none" stroke="#545B64" stroke-width="1.7" marker-end="url(#punta)"/><text x="983" y="815" font-size="11.5" fill="#16191F" text-anchor="middle" paint-order="stroke" stroke="#fff" stroke-width="4" stroke-linejoin="round">remove background</text><path d="M748,772 L748,886" fill="none" stroke="#545B64" stroke-width="1.7" stroke-dasharray="6 5" marker-end="url(#punta)"/><text x="742" y="833" font-size="11.5" fill="#16191F" text-anchor="end" paint-order="stroke" stroke="#fff" stroke-width="4" stroke-linejoin="round">on failure</text><path d="M688,914 L663,914" fill="none" stroke="#545B64" stroke-width="1.7" marker-end="url(#punta)"/><path d="M483,914 L458,914" fill="none" stroke="#545B64" stroke-width="1.7" marker-end="url(#punta)"/><g><rect x="22" y="376" width="150" height="56" rx="9" fill="#fff" stroke="#D5DBDB"/><rect x="30" y="384" width="40" height="40" rx="7" fill="#5A6B86"/><g transform="translate(30,384)"><rect x="13" y="8" width="14" height="24" rx="3" fill="none" stroke="#fff" stroke-width="2.2" stroke-linecap="round" stroke-linejoin="round"/><path d="M18 28h4" fill="none" stroke="#fff" stroke-width="2.2" stroke-linecap="round" stroke-linejoin="round"/></g><text x="79" y="401" font-size="13.5" font-weight="700" fill="#16191F">User</text><text x="79" y="418" font-size="11.5" fill="#545B64">mobile PWA</text></g><g><rect x="1359" y="376" width="150" height="56" rx="9" fill="#fff" stroke="#D5DBDB"/><rect x="1367" y="384" width="40" height="40" rx="7" fill="#5A6B86"/><g transform="translate(1367,384)"><circle cx="20" cy="20" r="5" fill="none" stroke="#fff" stroke-width="2.2" stroke-linecap="round" stroke-linejoin="round"/><path d="M20 8v3M20 29v3M8 20h3M29 20h3M11.5 11.5l2 2M26.5 26.5l2 2M28.5 11.5l-2 2M13.5 26.5l-2 2" fill="none" stroke="#fff" stroke-width="2.2" stroke-linecap="round" stroke-linejoin="round"/></g><text x="1416" y="401" font-size="13.5" font-weight="700" fill="#16191F">Open-Meteo</text><text x="1416" y="418" font-size="11.5" fill="#545B64">weather API</text></g><g><rect x="278" y="206" width="180" height="56" rx="9" fill="#fff" stroke="#D5DBDB"/><rect x="286" y="214" width="40" height="40" rx="7" fill="#8C4FFF"/><g transform="translate(286,214)"><text x="20" y="26" text-anchor="middle" font-size="15" font-weight="800" fill="#fff">53</text></g><text x="335" y="231" font-size="13.5" font-weight="700" fill="#16191F">Route 53</text><text x="335" y="248" font-size="11.5" fill="#545B64">custom domain</text></g><g><rect x="483" y="206" width="180" height="56" rx="9" fill="#fff" stroke="#D5DBDB"/><rect x="491" y="214" width="40" height="40" rx="7" fill="#8C4FFF"/><g transform="translate(491,214)"><circle cx="20" cy="20" r="11" fill="none" stroke="#fff" stroke-width="2.2" stroke-linecap="round" stroke-linejoin="round"/><ellipse cx="20" cy="20" rx="5" ry="11" fill="none" stroke="#fff" stroke-width="2.2" stroke-linecap="round" stroke-linejoin="round"/><path d="M9 20h22" fill="none" stroke="#fff" stroke-width="2.2" stroke-linecap="round" stroke-linejoin="round"/></g><text x="540" y="231" font-size="13.5" font-weight="700" fill="#16191F">CloudFront</text><text x="540" y="248" font-size="11.5" fill="#545B64">HTTPS · origin access</text></g><g><rect x="688" y="206" width="180" height="56" rx="9" fill="#fff" stroke="#D5DBDB"/><rect x="696" y="214" width="40" height="40" rx="7" fill="#7AA116"/><g transform="translate(696,214)"><path d="M11 13h18l-2.5 16a2 2 0 0 1-2 1.7h-9a2 2 0 0 1-2-1.7z" fill="none" stroke="#fff" stroke-width="2.2" stroke-linecap="round" stroke-linejoin="round"/><ellipse cx="20" cy="13" rx="9" ry="2.6" fill="none" stroke="#fff" stroke-width="2.2" stroke-linecap="round" stroke-linejoin="round"/></g><text x="745" y="231" font-size="13.5" font-weight="700" fill="#16191F">S3</text><text x="745" y="248" font-size="11.5" fill="#545B64">PWA static site</text></g><g><rect x="1127" y="206" width="180" height="56" rx="9" fill="#fff" stroke="#D5DBDB"/><rect x="1135" y="214" width="40" height="40" rx="7" fill="#DD344C"/><g transform="translate(1135,214)"><rect x="12" y="19" width="16" height="12" rx="2" fill="none" stroke="#fff" stroke-width="2.2" stroke-linecap="round" stroke-linejoin="round"/><path d="M15 19v-3.5a5 5 0 0 1 10 0V19" fill="none" stroke="#fff" stroke-width="2.2" stroke-linecap="round" stroke-linejoin="round"/></g><text x="1184" y="231" font-size="13.5" font-weight="700" fill="#16191F">ACM</text><text x="1184" y="248" font-size="11.5" fill="#545B64">TLS certificate</text></g><g><rect x="278" y="376" width="180" height="56" rx="9" fill="#fff" stroke="#D5DBDB"/><rect x="286" y="384" width="40" height="40" rx="7" fill="#DD344C"/><g transform="translate(286,384)"><circle cx="20" cy="15" r="5" fill="none" stroke="#fff" stroke-width="2.2" stroke-linecap="round" stroke-linejoin="round"/><path d="M10.5 31c1.4-5.2 5-8 9.5-8s8.1 2.8 9.5 8" fill="none" stroke="#fff" stroke-width="2.2" stroke-linecap="round" stroke-linejoin="round"/></g><text x="335" y="401" font-size="13.5" font-weight="700" fill="#16191F">Cognito</text><text x="335" y="418" font-size="11.5" fill="#545B64">User Pool · SRP</text></g><g><rect x="483" y="376" width="180" height="56" rx="9" fill="#fff" stroke="#D5DBDB"/><rect x="491" y="384" width="40" height="40" rx="7" fill="#8C4FFF"/><g transform="translate(491,384)"><path d="M15 12l-6 8 6 8M25 12l6 8-6 8M22.5 10l-5 20" fill="none" stroke="#fff" stroke-width="2.2" stroke-linecap="round" stroke-linejoin="round"/></g><text x="540" y="401" font-size="13.5" font-weight="700" fill="#16191F">API Gateway</text><text x="540" y="418" font-size="11.5" fill="#545B64">JWT auth · 20 rps</text></g><g><rect x="688" y="376" width="180" height="56" rx="9" fill="#fff" stroke="#D5DBDB"/><rect x="696" y="384" width="40" height="40" rx="7" fill="#ED7100"/><g transform="translate(696,384)"><text x="20" y="29" text-anchor="middle" font-size="25" font-weight="700" fill="#fff">λ</text></g><text x="745" y="401" font-size="13.5" font-weight="700" fill="#16191F">Lambda × 5</text><text x="745" y="418" font-size="11.5" fill="#545B64">API handlers</text></g><g><rect x="893" y="376" width="180" height="56" rx="9" fill="#fff" stroke="#D5DBDB"/><rect x="901" y="384" width="40" height="40" rx="7" fill="#ED7100"/><g transform="translate(901,384)"><text x="20" y="29" text-anchor="middle" font-size="25" font-weight="700" fill="#fff">λ</text></g><text x="950" y="401" font-size="13.5" font-weight="700" fill="#16191F">Lambda</text><text x="950" y="418" font-size="11.5" fill="#545B64">recommendations</text></g><g><rect x="483" y="546" width="180" height="56" rx="9" fill="#fff" stroke="#D5DBDB"/><rect x="491" y="554" width="40" height="40" rx="7" fill="#7AA116"/><g transform="translate(491,554)"><path d="M11 13h18l-2.5 16a2 2 0 0 1-2 1.7h-9a2 2 0 0 1-2-1.7z" fill="none" stroke="#fff" stroke-width="2.2" stroke-linecap="round" stroke-linejoin="round"/><ellipse cx="20" cy="13" rx="9" ry="2.6" fill="none" stroke="#fff" stroke-width="2.2" stroke-linecap="round" stroke-linejoin="round"/></g><text x="540" y="571" font-size="13.5" font-weight="700" fill="#16191F">S3</text><text x="540" y="588" font-size="11.5" fill="#545B64">photos · thumbnails</text></g><g><rect x="688" y="546" width="180" height="56" rx="9" fill="#fff" stroke="#D5DBDB"/><rect x="696" y="554" width="40" height="40" rx="7" fill="#C925D1"/><g transform="translate(696,554)"><ellipse cx="20" cy="12" rx="9" ry="3.2" fill="none" stroke="#fff" stroke-width="2.2" stroke-linecap="round" stroke-linejoin="round"/><path d="M11 12v16c0 1.8 4 3.2 9 3.2s9-1.4 9-3.2V12M11 20c0 1.8 4 3.2 9 3.2s9-1.4 9-3.2" fill="none" stroke="#fff" stroke-width="2.2" stroke-linecap="round" stroke-linejoin="round"/></g><text x="745" y="571" font-size="13.5" font-weight="700" fill="#16191F">DynamoDB</text><text x="745" y="588" font-size="11.5" fill="#545B64">single table</text></g><g><rect x="893" y="546" width="180" height="56" rx="9" fill="#fff" stroke="#D5DBDB"/><rect x="901" y="554" width="40" height="40" rx="7" fill="#01A88D"/><g transform="translate(901,554)"><path d="M20 9c.9 5.2 2.8 7.1 8 8-5.2.9-7.1 2.8-8 8-.9-5.2-2.8-7.1-8-8 5.2-.9 7.1-2.8 8-8zM28.5 24c.4 2 1.2 2.8 3.2 3.2-2 .4-2.8 1.2-3.2 3.2-.4-2-1.2-2.8-3.2-3.2 2-.4 2.8-1.2 3.2-3.2z" fill="#fff"/></g><text x="950" y="571" font-size="13.5" font-weight="700" fill="#16191F">Claude Sonnet 4.6</text><text x="950" y="588" font-size="11.5" fill="#545B64">recommendations</text></g><g><rect x="483" y="716" width="180" height="56" rx="9" fill="#fff" stroke="#D5DBDB"/><rect x="491" y="724" width="40" height="40" rx="7" fill="#E7157B"/><g transform="translate(491,724)"><path d="M9 15h18m-4-4 4 4-4 4M31 25H13m4-4-4 4 4 4" fill="none" stroke="#fff" stroke-width="2.2" stroke-linecap="round" stroke-linejoin="round"/></g><text x="540" y="741" font-size="13.5" font-weight="700" fill="#16191F">EventBridge</text><text x="540" y="758" font-size="11.5" fill="#545B64">rule · raw/ uploads</text></g><g><rect x="688" y="716" width="180" height="56" rx="9" fill="#fff" stroke="#D5DBDB"/><rect x="696" y="724" width="40" height="40" rx="7" fill="#ED7100"/><g transform="translate(696,724)"><text x="20" y="29" text-anchor="middle" font-size="25" font-weight="700" fill="#fff">λ</text></g><text x="745" y="741" font-size="13.5" font-weight="700" fill="#16191F">Lambda</text><text x="745" y="758" font-size="11.5" fill="#545B64">photo processing</text></g><g><rect x="893" y="716" width="180" height="56" rx="9" fill="#fff" stroke="#D5DBDB"/><rect x="901" y="724" width="40" height="40" rx="7" fill="#01A88D"/><g transform="translate(901,724)"><path d="M20 9c.9 5.2 2.8 7.1 8 8-5.2.9-7.1 2.8-8 8-.9-5.2-2.8-7.1-8-8 5.2-.9 7.1-2.8 8-8zM28.5 24c.4 2 1.2 2.8 3.2 3.2-2 .4-2.8 1.2-3.2 3.2-.4-2-1.2-2.8-3.2-3.2 2-.4 2.8-1.2 3.2-3.2z" fill="#fff"/></g><text x="950" y="741" font-size="13.5" font-weight="700" fill="#16191F">Claude Haiku 4.5</text><text x="950" y="758" font-size="11.5" fill="#545B64">classification</text></g><g><rect x="1127" y="716" width="180" height="56" rx="9" fill="#fff" stroke="#D5DBDB"/><rect x="1135" y="724" width="40" height="40" rx="7" fill="#01A88D"/><g transform="translate(1135,724)"><path d="M20 9c.9 5.2 2.8 7.1 8 8-5.2.9-7.1 2.8-8 8-.9-5.2-2.8-7.1-8-8 5.2-.9 7.1-2.8 8-8zM28.5 24c.4 2 1.2 2.8 3.2 3.2-2 .4-2.8 1.2-3.2 3.2-.4-2-1.2-2.8-3.2-3.2 2-.4 2.8-1.2 3.2-3.2z" fill="#fff"/></g><text x="1184" y="741" font-size="13.5" font-weight="700" fill="#16191F">Stability AI</text><text x="1184" y="758" font-size="11.5" fill="#545B64">background removal</text></g><g><rect x="278" y="886" width="180" height="56" rx="9" fill="#fff" stroke="#D5DBDB"/><rect x="286" y="894" width="40" height="40" rx="7" fill="#E7157B"/><g transform="translate(286,894)"><circle cx="14" cy="20" r="2.4" fill="#fff"/><path d="M19 14.5a8 8 0 0 1 0 11M23.5 11a13 13 0 0 1 0 18" fill="none" stroke="#fff" stroke-width="2.2" stroke-linecap="round" stroke-linejoin="round"/></g><text x="335" y="911" font-size="13.5" font-weight="700" fill="#16191F">SNS</text><text x="335" y="928" font-size="11.5" fill="#545B64">e-mail alerts</text></g><g><rect x="483" y="886" width="180" height="56" rx="9" fill="#fff" stroke="#D5DBDB"/><rect x="491" y="894" width="40" height="40" rx="7" fill="#E7157B"/><g transform="translate(491,894)"><path d="M10 29V11M10 29h21M13 24l5-6 4 3 7-8" fill="none" stroke="#fff" stroke-width="2.2" stroke-linecap="round" stroke-linejoin="round"/></g><text x="540" y="911" font-size="13.5" font-weight="700" fill="#16191F">CloudWatch</text><text x="540" y="928" font-size="11.5" fill="#545B64">alarms</text></g><g><rect x="688" y="886" width="180" height="56" rx="9" fill="#fff" stroke="#D5DBDB"/><rect x="696" y="894" width="40" height="40" rx="7" fill="#E7157B"/><g transform="translate(696,894)"><rect x="9" y="12" width="6" height="16" rx="1.5" fill="none" stroke="#fff" stroke-width="2.2" stroke-linecap="round" stroke-linejoin="round"/><rect x="17" y="12" width="6" height="16" rx="1.5" fill="none" stroke="#fff" stroke-width="2.2" stroke-linecap="round" stroke-linejoin="round"/><rect x="25" y="12" width="6" height="16" rx="1.5" fill="none" stroke="#fff" stroke-width="2.2" stroke-linecap="round" stroke-linejoin="round"/></g><text x="745" y="911" font-size="13.5" font-weight="700" fill="#16191F">SQS</text><text x="745" y="928" font-size="11.5" fill="#545B64">dead-letter queue</text></g><path d="M24 1018 h46" stroke="#545B64" stroke-width="1.7" marker-end="url(#punta)"/><text x="80" y="1022" font-size="12" fill="#545B64">request / data access</text><path d="M250 1018 h46" stroke="#545B64" stroke-width="1.7" stroke-dasharray="6 5" marker-end="url(#punta)"/><text x="306" y="1022" font-size="12" fill="#545B64">event-driven / asynchronous</text><text x="24" y="1046" font-size="12" fill="#545B64">Main flows: 1 load the app · 2 sign in · 3 call the API · 4 upload a photo straight to S3 · 5 process it asynchronously · 6 recommend outfits</text></svg>